<?xml version="1.0" encoding="utf-8"?>
<!-- Generator: Adobe Illustrator 22.1.0, SVG Export Plug-In . SVG Version: 6.00 Build 0)  -->
<svg version="1.1" id="Layer_1" xmlns="http://www.w3.org/2000/svg" xmlns:xlink="http://www.w3.org/1999/xlink" x="0px" y="0px"
	 viewBox="0 0 600 67.3" enable-background="new 0 0 600 67.3" xml:space="preserve">
<g>
	<g>
		<path fill="#2D2D2D" d="M374.9,45.8c-0.1-1.7-0.5-3.1-1.2-4.4c-0.6-1.2-1.3-2.3-2.3-3.1c-1.1-1-2-1.7-3.2-2.3
			c-1.2-0.6-2.5-1.1-3.8-1.4c-0.5-0.1-1,0-1.3,0.5c-0.2,0.4-0.6,1-0.8,1.4c-0.2,0.6-0.6,1.1-1,1.4c-0.4,0.5-0.8,0.6-1.4,0.4
			c0.4-1.8,0.5-3.5,0.4-5.1c0-1.4-0.2-2.8-0.7-3.8c-0.4-1.1-1.1-1.9-1.9-2.5c-0.8-0.5-1.9-0.7-3.2-0.6c-0.7-1.7-1.4-3.1-2.3-4.3
			c-0.8-1.2-2-1.9-3.7-2.3c-1-0.2-1.9-0.1-2.8,0.4c-1,0.4-1.6,1.2-1.9,2.4c-0.7-0.5-1.6-0.7-2.5-0.6c-1,0.2-1.8,0.6-2.5,1.2
			c-0.8,0.6-1.4,1.3-2,2.3c-0.6,1-0.8,1.9-0.8,3c0,3.8,1.2,6,3.6,6.4c-0.2-0.8,0.1-1.3,0.7-1.4c0.7-0.1,1.3,0.2,1.8,0.8
			c0.8,1.2,1.1,2.6,0.7,4.4c-0.2,1.9-1,3.7-1.9,5.5c-1.1,1.8-2.4,3.2-4,4.6c-1.6,1.3-3.4,1.9-5.2,1.9c0.6-1.1,1.2-2.3,1.8-3.4
			c0.6-1.2,1.2-2.3,1.7-3.2c0.6-1.1,0.8-1.8,0.5-2.3c-0.4-0.4-0.8-0.4-1.3,0.1c-1.2,1.1-2.3,2.3-3.4,3.4c-1.1,1.1-2.2,2-3.2,2.9
			c-1.1,1-2.2,1.7-3.4,2.3c-1.2,0.6-2.5,1-4.1,1.2c-2.2,0.4-4.1,0.1-5.7-0.7c-1.7-0.8-2.9-2.2-3.7-3.7c1,0.2,1.9,0.2,2.9,0.2
			c1-0.1,1.8-0.4,2.5-0.7c0.7-0.4,1.3-0.8,1.7-1.4c0.4-0.7,0.5-1.4,0.2-2.3c-1.6,0.5-3.2,0.5-5.1,0.1c-1.8-0.4-3.5-1.2-5.1-2.4
			c-1.6-1.2-2.9-2.6-4-4.5c-1.1-1.8-1.6-3.8-1.6-6c0-1.6,0.2-3.1,0.8-4.6c0.6-1.4,1.3-2.6,2.2-3.6c1-1,2-1.6,3.2-1.9
			c1.2-0.4,2.4-0.2,3.6,0.4c0.6,0.4,1.1,0.4,1.4,0.2c0.5-0.1,0.8-0.4,1.1-0.7c0.2-0.4,0.4-0.8,0.4-1.3c0-0.6-0.1-1.2-0.4-1.7
			c-0.4-1-1-1.8-1.7-2.6c-0.6-0.7-1.4-1.4-2.4-1.8c2.3-2,4.7-3,7.3-3.1c2.5-0.2,4.9,0.4,7,1.4c2,1.2,3.6,2.9,4.7,5.3
			c1,2.3,1.2,5.1,0.5,8.1c-1.9-1.9-3.9-2.6-5.9-2.3c-1,0.2-1.9,0.7-2.6,1.8c-0.7,1-1.1,2.2-1.1,3.6c0.1,3.5,1.8,5.4,5.2,5.9
			c1.6,0.1,3-0.2,4.3-1.3c1.4-1,2.4-2.6,3-4.9c0.7-2.8,0.8-5.3,0.5-7.8c-0.5-2.4-1.3-4.8-2.5-7.2c0.5-0.8,1.3-1.3,2.5-1.4
			c1.1-0.1,1.9,0.1,2.8,0.6c0-1.2-0.2-2.3-0.8-3.1c-0.5-0.7-1.1-1.3-1.9-1.4c-0.7-0.2-1.6-0.2-2.4,0.1c-0.8,0.4-1.7,1.2-2.4,2.3
			c-2.3-1.9-5.1-3-8.1-3.1c-3-0.1-5.7,0.2-8.1,1.2c-2.4,1-4.3,2.3-5.9,4c-1.7,1.7-2.9,3.5-3.8,5.5c-1,2-1.6,4.3-1.9,6.6
			c-0.2,2.4-0.5,4.7-0.5,7c0,1.8,0.2,3.7,0.8,5.5c0.5,1.8,1.1,3.6,1.7,5.4c0.6,1.8,1.1,3.6,1.6,5.4c0.6,1.8,0.8,3.6,0.8,5.3
			c0,1.2-0.2,2.3-0.6,3.5c-0.4,1.2-1,2.3-1.8,3.4c1.1,0.4,2.2,0.4,3.1,0c1.1-0.5,1.8-1.1,2.4-1.9c0.7-0.8,1.1-1.9,1.4-3
			c0.2-1.2,0.2-2.5-0.1-3.7c2.9,3.2,6,5.8,9.5,7.5c3.5,1.7,7.1,2.5,10.9,2.5c3.7,0,7.2-0.5,10.8-1.6c3.5-1,6.5-2.3,9.1-3.8
			c1.4-0.8,2.8-1.4,4-1.4c1.3-0.1,2.3,0.1,3.1,0.7c0.7,0.5,1.3,0.6,1.7,0.6c0.5-0.1,0.7-0.4,1-0.7c0.1-0.5,0.2-0.8,0.2-1.4
			c0-0.5-0.1-1-0.4-1.4c-0.5-1-1.1-1.7-1.7-1.9c-0.6-0.4-1.6-0.7-2.9-1.2c0.5-1,1.1-1.4,1.8-1.7c0.7-0.2,1.6-0.1,2.5,0.1
			c1,0.2,1.9,0.6,2.9,1.1c1.1,0.4,2,0.7,2.9,1c1,0.4,1.6,0.2,1.7-0.4c0.1-0.5-0.1-1.1-0.7-1.7c-0.8-1-1.4-1.7-1.9-1.9
			c-0.5-0.4-0.7-0.8-0.6-1.7c0.2-0.5,0.7-0.7,1.6-0.8c0.7-0.1,1.7-0.1,2.6,0.1c1,0.2,1.8,0.6,2.6,1.2c0.8,0.5,1.3,1.1,1.4,1.8
			c0.1,0.6,0,1.1-0.1,1.6c-0.1,0.4-0.4,0.7-0.7,1.2c-0.4,0.4-0.6,0.7-1,1.1c-0.4,0.4-0.6,0.8-0.8,1.3c-0.2,0.6-0.4,1.2-0.2,1.8
			c0.1,0.6,0.2,1.1,0.5,1.6c0.2,0.5,0.5,0.8,1,1.1c0.4,0.2,0.8,0.2,1.2,0.1c1.3-0.5,2.2-1.7,2.6-3.4C374.9,49.1,375,47.5,374.9,45.8
			L374.9,45.8z M298,29.9c0-2.3-0.2-4.6-0.5-7c-0.4-2.3-1-4.6-1.9-6.6c-1-2-2.2-3.8-3.8-5.5c-1.6-1.7-3.5-3-5.9-4
			c-2.4-1-5.1-1.3-8.1-1.2c-3,0.1-5.7,1.2-8.1,3.1c-0.7-1.1-1.6-1.9-2.4-2.3c-0.8-0.4-1.7-0.4-2.4-0.1C264,6.4,263.4,7,263,7.8
			c-0.5,0.8-0.8,1.9-0.8,3.1c0.8-0.5,1.7-0.7,2.9-0.6c1.1,0.1,1.9,0.6,2.4,1.4c-1.2,2.4-2,4.8-2.4,7.2c-0.5,2.5-0.4,5.1,0.4,7.8
			c0.6,2.3,1.6,4,3,4.9c1.3,1.1,2.8,1.4,4.3,1.3c3.5-0.5,5.2-2.4,5.2-5.9c0-1.4-0.4-2.6-1.1-3.6c-0.7-1.1-1.7-1.6-2.6-1.8
			c-2-0.4-4,0.4-5.9,2.3c-0.7-3-0.5-5.8,0.5-8.1c1.1-2.4,2.8-4.1,4.8-5.3c2-1.1,4.5-1.7,7-1.4c2.6,0.1,5.1,1.1,7.2,3.1
			c-0.8,0.4-1.7,1.1-2.4,1.8c-0.7,0.8-1.3,1.7-1.7,2.6c-0.2,0.5-0.4,1.1-0.4,1.7c0,0.5,0.1,1,0.4,1.3c0.2,0.4,0.6,0.6,1,0.7
			c0.4,0.1,1,0.1,1.6-0.2c1.1-0.6,2.4-0.7,3.6-0.4c1.2,0.4,2.3,1,3.2,1.9c0.8,1,1.6,2.2,2.2,3.6c0.6,1.4,0.8,3,0.8,4.6
			c0,2.2-0.5,4.2-1.6,6c-1.1,1.8-2.4,3.2-4,4.5c-1.6,1.2-3.2,2-5.1,2.4c-1.8,0.4-3.5,0.4-5-0.1c-0.2,0.8-0.1,1.6,0.2,2.3
			c0.4,0.6,1,1.1,1.7,1.4c0.7,0.4,1.6,0.6,2.5,0.7c1,0,1.9,0,2.9-0.2c-0.8,1.6-2,2.9-3.7,3.7c-1.6,0.8-3.5,1.1-5.7,0.7
			c-1.6-0.2-2.9-0.6-4-1.2c-1.2-0.6-2.3-1.3-3.4-2.3c-1.1-0.8-2.2-1.8-3.2-2.9c-1.1-1.1-2.2-2.3-3.4-3.4c-0.5-0.5-1-0.5-1.3-0.1
			c-0.4,0.5-0.2,1.2,0.4,2.3c0.5,1,1.1,2,1.7,3.2c0.6,1.1,1.2,2.3,1.8,3.4c-1.8,0-3.6-0.6-5.2-1.9c-1.6-1.3-2.9-2.8-4-4.6
			c-1-1.8-1.7-3.6-1.9-5.5c-0.2-1.8,0-3.2,0.8-4.4c0.5-0.6,1.1-1,1.7-0.8c0.7,0.1,1,0.6,0.7,1.4c2.4-0.4,3.6-2.5,3.6-6.4
			c0-1.1-0.2-2-0.8-3c-0.6-1-1.2-1.7-2-2.3c-0.7-0.6-1.6-1-2.5-1.2c-1-0.1-1.8,0.1-2.5,0.6c-0.4-1.2-1-2-1.9-2.4
			c-0.8-0.5-1.8-0.6-2.8-0.4c-1.7,0.4-2.9,1.1-3.7,2.3c-0.8,1.2-1.6,2.6-2.3,4.3c-2.6-0.2-4.4,0.7-5.2,3.1c-0.8,2.3-1,5.3-0.4,8.9
			c-0.6,0.2-1.1,0.1-1.4-0.4c-0.4-0.4-0.7-0.8-1-1.4c-0.2-0.5-0.6-1.1-0.8-1.4c-0.4-0.5-0.8-0.6-1.3-0.5c-1.3,0.4-2.6,0.8-3.8,1.4
			c-1.1,0.6-2.2,1.3-3.1,2.3c-1.1,0.8-1.8,1.9-2.4,3.1c-0.7,1.3-1.1,2.8-1.2,4.4c-0.1,1.7,0,3.4,0.5,5.2c0.5,1.7,1.3,2.9,2.6,3.4
			c0.5,0.1,0.8,0.1,1.2-0.1c0.5-0.2,0.8-0.6,1-1.1c0.2-0.5,0.4-1,0.5-1.6c0.1-0.6,0-1.2-0.2-1.8c-0.2-0.5-0.5-1-0.8-1.3
			c-0.4-0.4-0.6-0.7-1-1.1c-0.2-0.5-0.5-0.8-0.7-1.2c-0.1-0.5-0.1-1,0-1.6c0.1-0.7,0.6-1.3,1.4-1.8c0.8-0.6,1.7-1,2.6-1.2
			c1-0.2,1.9-0.2,2.6-0.1c0.8,0.1,1.3,0.4,1.4,0.8c0.2,0.8,0,1.3-0.5,1.7c-0.5,0.2-1.2,1-2,1.9c-0.6,0.6-0.8,1.2-0.7,1.7
			c0.1,0.6,0.7,0.7,1.7,0.4c1-0.2,1.9-0.6,2.9-1c1-0.5,1.9-0.8,2.9-1.1c1-0.2,1.8-0.4,2.5-0.1c0.7,0.2,1.3,0.7,1.8,1.7
			c-1.3,0.5-2.2,0.8-2.9,1.2c-0.6,0.2-1.2,1-1.7,1.9c-0.2,0.5-0.4,1-0.4,1.4c0,0.6,0.1,1,0.2,1.4c0.2,0.4,0.5,0.6,1,0.7
			c0.4,0,1-0.1,1.7-0.6c0.8-0.6,1.9-0.8,3.1-0.7c1.2,0,2.5,0.6,4.1,1.4c2.5,1.6,5.5,2.9,9.1,3.8c3.5,1.1,7.1,1.6,10.7,1.6
			c4,0,7.6-0.8,11.1-2.5c3.4-1.7,6.6-4.2,9.4-7.5c-0.2,1.2-0.4,2.5,0,3.7c0.2,1.1,0.6,2.2,1.3,3c0.6,0.8,1.4,1.4,2.4,1.9
			c1,0.4,2,0.4,3.1,0c-0.8-1.1-1.4-2.2-1.8-3.4c-0.4-1.2-0.6-2.3-0.6-3.5c0-1.7,0.2-3.5,0.7-5.3c0.5-1.8,1.1-3.6,1.7-5.4
			c0.6-1.8,1.2-3.6,1.7-5.4C297.7,33.6,298,31.7,298,29.9L298,29.9z M349.4,24.1c0.8,1.2,1.4,2.9,1.7,4.8c0.4,1.9,0.5,4.1,0.4,6.3
			c-0.1,2.3-0.4,4.4-0.8,6.7c-0.5,2.2-1.1,4.1-1.9,5.7c-0.8,1.8-1.9,3.4-3.4,4.7c-1.3,1.3-2.9,2.4-4.6,3.1c-1.7,0.7-3.4,1.1-5.2,1.2
			c-1.9,0.2-3.7,0-5.4-0.6c3.1-1.1,5.8-2.8,8.2-5.1c2.4-2.2,4.3-4.7,5.7-7.6c1.4-2.8,2.3-5.8,2.6-9c0.4-3.2,0.1-6.3-0.8-9.4
			c-0.1-0.5-0.1-1,0.1-1.3c0.2-0.4,0.6-0.6,1-0.7c0.4-0.1,0.7-0.1,1.2,0.1C348.6,23.3,349.1,23.5,349.4,24.1L349.4,24.1z M268.1,56
			c-1.7,0.6-3.5,0.8-5.4,0.6c-1.8-0.1-3.5-0.5-5.2-1.2c-1.7-0.7-3.2-1.8-4.7-3.1c-1.3-1.3-2.5-2.9-3.2-4.7c-0.8-1.6-1.3-3.5-1.8-5.7
			c-0.5-2.2-0.7-4.3-0.8-6.6c-0.1-2.2,0-4.3,0.4-6.3c0.2-2,0.8-3.7,1.7-4.9c0.7-1.1,1.6-1.6,2.5-1.2c1,0.2,1.2,1,1,2
			c-1,3.1-1.2,6.1-0.8,9.4c0.4,3.2,1.2,6.3,2.6,9c1.3,2.9,3.2,5.4,5.7,7.6C262.4,53.2,265,54.9,268.1,56L268.1,56z"/>
		<polygon fill-rule="evenodd" clip-rule="evenodd" fill="#2D2D2D" points="379,37.2 578.6,42.4 578.6,45.3 379,50.8 		"/>
		<path fill-rule="evenodd" clip-rule="evenodd" fill="#2D2D2D" d="M591.8,38.3c3.2,0,5.8,2.6,5.8,5.8c0,3.1-2.5,5.8-5.8,5.8
			c-3.1,0-5.7-2.6-5.7-5.8C586.1,41,588.6,38.3,591.8,38.3L591.8,38.3z"/>
		<polygon fill-rule="evenodd" clip-rule="evenodd" fill="#2D2D2D" points="221,37.2 21.4,42.4 21.4,45.3 221,50.8 		"/>
		<path fill-rule="evenodd" clip-rule="evenodd" fill="#2D2D2D" d="M8.2,38.3c-3.1,0-5.8,2.6-5.8,5.8c0,3.1,2.6,5.8,5.8,5.8
			s5.8-2.6,5.8-5.8C14,41,11.4,38.3,8.2,38.3L8.2,38.3z"/>
	</g>
</g>
</svg>
