<?xml version="1.0" encoding="utf-8"?>
<!-- Generator: Adobe Illustrator 22.1.0, SVG Export Plug-In . SVG Version: 6.00 Build 0)  -->
<svg version="1.1" id="Layer_1" xmlns="http://www.w3.org/2000/svg" xmlns:xlink="http://www.w3.org/1999/xlink" x="0px" y="0px"
	 viewBox="0 0 200 200" enable-background="new 0 0 200 200" xml:space="preserve">
<path d="M15.5,50.7c-2.7-0.4-5.5-3.9-6-7.8c-0.2-2.1-0.2-4.4,0.4-6.2c3-10,9.1-16.1,18.2-18.4c0.9-0.2,1.9-0.1,3.3-0.2
	c-0.8,2.2-4.1,1.6-2.3,5.4c4.9-2.5,9.6-5,14.6-7.2c1.1-0.5,3-0.4,4.3,0.3c5.6,3.2,11.1,6.6,16.5,10.2c7.3,4.9,14.4,6.6,21.3,3.8
	c4.9-2,9.7-4.3,14.8-6.1c5.3-1.9,10.6-3.8,16.2-4.7c7.6-1.2,16.8,5.3,21.3,14c0.5,1,0.6,2.2,0.7,3.4c2.1,23.8-3.9,43.2-14.1,60.3
	c-8.1,13.5-18.1,25-30.4,33.3c-6.3,4.3-13.8,7-21.2,9c-11.6,3-18.9-2.9-23.6-18.8c-1.8-5.9-3.1-11.8-2.7-18
	c0.6-7.1-2.9-14.1-6.6-20.6c-0.6-1-1.8-1.8-2.7-2.5c-3.6-2.9-7.3-5.6-10.9-8.7C20.3,65.7,15.1,59.7,15.5,50.7
	c2.4-8.9,6.5-16.5,11.3-23.6c0.1-0.2,0-0.6,0-0.6c-2.9,1.8-5.7,3.7-8.8,5.2c-1.7,0.9-2.5,2-2.1,4.4c0.2,1-0.4,2.8-0.6,2.7
	c-2.2-0.6-1.9,1.5-1.7,2.7C14,44.6,14.8,47.7,15.5,50.7z M80.3,128.5c0.9-0.4,1.9-0.8,2.6-1.4c5.6-4.2,11.7-7.9,16.6-12.9
	c9.5-9.7,18.4-20,23.7-34.3c3.3-8.9,6.5-17.6,6.9-28c0.2-5.5-0.3-10.6-3.9-15.8c-1.5-2.1-2.5-3.2-4.5-2c3.7,10.9,6.6,21.8,2,31.4
	c-0.2-2.6-0.3-5.1,0.1-7.5c0.2-1.8,1.5-3.3,1.3-5c-0.7-6.3-3.9-11.9-7.1-17.7c-0.6,1.3-0.9,2.7-0.4,3.8c4,9.4,3.2,17.7,0.2,25.4
	c-0.3,0.7-0.9,1.2-1.4,1.9c-0.3-0.2-0.7-0.3-1-0.5c2.2-9.4,4.4-18.8-3.1-30c-0.4,1.7-1.2,2.8-0.9,3.8c1.8,8.4,0.4,15.7-1.3,22.9
	c-0.3,1.3-1.3,2.2-2,3.2c0.4-4.7,1.6-8.6,2.2-12.8c0.6-4.4-0.8-9.1-3.1-13.7c-0.8,1.4-1.3,2.9-1.3,4.5c-0.2,4.8,0.1,9.7-0.4,14.3
	c-0.3,2.7-1.7,5-2.7,7.4c-0.4-0.2-0.8-0.5-1.2-0.7c0.8-6.3,1.5-12.5,2.4-19.8c-1.8,0.9-2.7,1.5-3.7,1.8c-2.1,0.7-2.4,2.1-2.2,5
	c0.3,4.3-0.7,8.4-1.2,12.6c0,0.4-0.8,0.5-1.6,0.8c0.1-4.6,0.2-8.6,0.2-12.7c-0.3-0.1-0.6-0.2-0.9-0.4c-1.5,4.2-3,8.4-4.6,13.1
	c-0.5-2.6-0.8-4.4-1.1-6.2c-0.4-0.1-0.8-0.3-1.2-0.4c-1.4,3.7-2.6,7.6-4.1,11.2c-1.6,3.7-5.2,6.9-4.8,10.7c0.5,5.1-4.3,6.5-2.8,12.2
	c1.8-1.4,3.2-2.5,4.7-3.7c0.2,0.2,0.3,0.4,0.5,0.6c-2.3,3.6-4.5,7.2-7,11.2c1.8,0.3,2.7,0.5,3.8,0.7c-1.3,2.2-5.4,2.1-2.5,7.4
	c4.2-2.8,8.4-5.5,12.5-8.2c-0.1,1.1-0.5,1.7-1,2.2c-3.4,3.3-6.9,6.5-10.2,10c-0.7,0.7-0.8,2.3-1.2,3.4c0.3,0.4,0.7,0.7,1,1.1
	c3.1-1.6,6.2-3.1,9.3-4.7c0.1,0.3,0.3,0.6,0.4,0.8c-2.8,2.3-5.6,4.5-8.3,6.9c-0.4,0.4-0.4,1.4-0.6,2.1c0.7,0.3,1.5,0.9,2,0.8
	c1.8-0.5,3.5-1.3,5.2-2c-0.9,1.5-2.2,2.3-3.4,3.3C80.2,125.1,77.8,125.3,80.3,128.5z M50.5,113.3c1.3-1.8,2.6-2.8,3.1-4.3
	c1-3,1.7-6.2,2.3-9.5c0.6-3.7,0.4-7.9,1.6-11.2C60.9,78.4,65,69,70.9,61c8.7-11.5,17.5-22.8,29.9-29.3c7.2-3.8,14.8-6.1,24-1.9
	c0.7,0.3,1.9-0.4,2.4-1.1c0.2-0.3-0.6-2.2-1.3-2.8c-5.4-4.5-10.6-4.5-15.3-2c-3.6,1.9-6.8,4.3-10.2,6.5c-0.7,0.4-1.4,0.9-2.2,1.1
	c-1.4,0.4-3.2,0-4.2,0.9C87.3,38.2,80.7,44,74.4,50.3c-2.8,2.8-5.2,6.3-7.3,9.9c-4.6,8.3-10.1,15.9-12.6,26
	c-0.2,0.7-1.3,0.9-1.9,1.3c0-0.9-0.3-2,0-2.6c1-2,0.3-3.6-1.1-5.5c-2.9,4.4-4,12.7-2.2,15.7c0.9-1.9,1.7-3.8,2.6-5.8
	c0.3,0.2,0.6,0.4,0.9,0.6C53.8,98.1,48.8,104,50.5,113.3z M53.7,116.6c-3.4,1-3.4,1-2.3,4.7c0.5,1.5,0.9,3,1.5,4.4
	c1.9,4.4,4.4,8,8.5,9.6c0.7,0.3,1.5,0,2.3-0.1c0.9-0.1,2-0.8,2.6-0.4c5.3,3.8,9.9,2.3,13.9,0.4c11.7-5.5,21.8-13.6,30.4-23.9
	c10-12.2,17.2-26.8,22.8-42.7c0.8-2.1,1.6-4.1,0.6-6.9c-0.3-1-0.1-2.8,0.5-3.2c2.3-1.6,1.9-4.3,1.6-7.2c-0.2-2.3-0.4-4.6-0.1-6.7
	c0.8-5.8-3.5-9.2-6.3-13.6c-0.4,1.2-0.5,2.3-0.2,3.5c1.1,5.2,2.7,10.5,3.2,15.7c1.1,12-3.6,21.5-6.9,31.1
	c-4.8,13.8-13.5,24.6-23.1,34.1c-6.6,6.5-13.3,12.9-21.8,16.5c-4,1.7-8.2,2.3-13,1.8c-6.8-0.7-10.2-5.6-12.7-12.4
	C54.7,119.7,54.2,118.2,53.7,116.6z M35.8,59.8c-0.2,0.5-0.5,1-0.7,1.5c-3.2-2.3-6.3-4.7-9.5-6.9c-0.8-0.6-1.8-0.9-2.6-1.3
	c-0.1,1-0.5,2-0.4,3c1,7.2,7.7,16.7,13.7,19.4c0.6,0.3,1.9-0.7,2-1.3c0.2-3.1-0.1-6.3,0-9.4c0-2,0.4-4,0.6-6.7
	c-3.4-2.9-7.7-6.6-12.1-10.1c-0.7-0.6-2-0.1-2.9,0c0,0.3,0,0.7,0,1C27.8,52.5,31.8,56.2,35.8,59.8z M48,74.7
	c0.3,0.1,0.6,0.3,0.9,0.4c1.9-3.5,3.9-7.1,5.8-10.6c0.4,0.3,0.7,0.5,1.1,0.8c0.1,2.6-1.1,4.5-2.6,6c-2,2-1.2,3.7,0.8,5.9
	c3.8-3.1,4.8-8.2,6.1-13.3c-0.2-0.1-0.7-0.5-1.2-0.6c-2-0.5-4.1-0.4-5.9-1.6c-2.3-1.5-3.7-1-5.1,0.4c-4.3,3.9-5.2,14.6-1.9,21.5
	c0.1,0.2,0.5,0.2,1.2,0.4c-2.9-8.8-0.8-15.4,2.1-21.7c0.4,0.2,0.7,0.3,1.1,0.5C49.5,66.8,48.8,70.8,48,74.7z M19.8,46.1
	c0.8,0.7,1.3,1.3,1.9,1.8c0.4-0.6,0.7-1.1,1-1.6c2.7-3.2,3.7-3.2,7.7-0.3c2.9,2.2,5.8,4.3,8.6,6.5c0.9,0.7,1.6,1.7,2.4,2.5
	c0.2-0.8,0.4-1.5,0.6-2.3c-0.8-0.8-1.5-1.7-2.3-2.3c-2.6-2.2-5.4-4.1-7.9-6.4c-4.6-4.3-3.9-5.6-1.6-8.3c3.8-4.5,7.7-8.8,11.5-13.3
	c0.5-0.6,0.7-1.5,1.1-2.2c-0.4-0.3-1-0.8-1.2-0.7c-0.7,0.5-1.4,1.1-1.9,1.8c-0.3,0.5,0,1.6-0.4,2c-4.6,4.6-10,7.1-13.8,13.5
	 M45.7,24.6c5.5,4,10.7,8.6,17.1,5.9c-2.8-2.1-4.2-5.9-7.6-5c-0.5,0.1-1.4-0.6-1.9-1.1C50.3,21.6,47.9,21.7,45.7,24.6z M77,37.1
	c-3-2.3-18.6,6.8-19.5,11.2C64,44.6,70.5,40.9,77,37.1z M46.2,47.4c0.2,0.3,0.4,0.5,0.6,0.8c3.6-3.9,7.1-7.8,10.7-11.7
	c-0.3-0.3-0.6-0.7-0.8-1C52.5,38.5,49.4,43,46.2,47.4z M47.8,57.8c-0.1-0.3-0.3-0.7-0.4-1c-1.1,0.2-2.6-0.1-3.3,0.6
	c-1.5,1.6-1.7,3.7-0.7,5.9C44.9,61.5,46.4,59.6,47.8,57.8z M40.1,76.8c0.5,0.1,1,0.3,1.6,0.4c0.2-3.2,0.3-6.4,0.5-9.7
	c-0.5-0.2-1.1-0.3-1.6-0.5C40.4,70.3,40.3,73.5,40.1,76.8z M70,43.7c-0.1-0.3-0.2-0.6-0.4-0.9c-3,2.3-5.9,4.5-8.9,6.8
	c0.3,0.4,0.6,0.9,0.9,1.3C64.5,48.6,67.2,46.2,70,43.7z M62.8,59.6c0.3,0.2,0.5,0.5,0.8,0.7c2.3-3.1,4.7-6.3,7-9.4
	c-0.3-0.3-0.5-0.6-0.8-0.8C67.5,53.3,65.2,56.4,62.8,59.6z"/>
<path d="M86.3,193.1c1-0.5,2-1,3.1-1.5c19.8-9.8,38.7-21.2,54.9-36.9c11.1-10.7,19.3-24.6,27-38.9c3.6-6.8,7-13.8,10.1-21
	c1.7-4,2.3-8.7,3.7-12.9c1.1-3.5,2.6-6.7,4-10.1c0.3,0.1,0.7,0.2,1,0.4c0.2,1.1,0.7,2.3,0.5,3.2c-1,4.5-2.2,8.9-3.2,13.4
	c-2.4,10.5-6.8,19.4-11.6,28.1c-12.8,23.5-29.5,42.4-49.4,57.4c-6.7,5-14.4,8.5-21.8,12.4c-5.1,2.7-10.5,4.9-15.7,7.3
	c-0.6,0.3-1.4,0.2-2.1,0.3C86.6,193.8,86.4,193.5,86.3,193.1z"/>
<path d="M78.7,178.5c1.1-0.6,2.2-1.1,3.3-1.7c19.4-9.2,37.5-20.9,52.6-37c7.1-7.6,12.5-17.2,18.7-25.9c0.7-1,1.5-2.1,2-3.3
	c7.1-16.9,15.6-33,18.5-52.7c0.6-4.1,0.6-8.6,0.9-12.8c0.1-0.9,0.4-2,1-2.5c0.4-0.3,1.9,0,2.1,0.4c0.4,0.9,0.5,2.1,0.4,3.1
	c-1.9,11.2-3.6,22.5-6,33.5c-1.1,5.1-3.4,9.6-5.5,14.2c-2,4.6-4.7,8.8-6.5,13.5c-6.7,17.3-18.4,29.3-30,41.3
	c-12,12.4-26.3,21-41.7,27.8c-2.4,1-4.6,2.4-6.9,3.4c-0.6,0.3-1.5,0-2.3-0.1C79,179.3,78.9,178.9,78.7,178.5z"/>
<path d="M70.7,152c0.7-0.6,1.2-1.4,2-1.9c11.7-7,23.2-14.3,33.2-23.9c13.8-13.1,23.9-29.9,31.6-48.9c1.5-3.8,1.6-8.6,3.3-12.2
	c4.1-9.1,3.1-20.1,4.3-30.3c0.1-1.2,0.8-2.1,1.3-3.2c0.8,0.7,1.9,1.3,2.3,2.1c0.5,1.2,0.8,2.8,0.6,4c-0.6,3.3-1.8,6.4-2.3,9.7
	c-1.4,8.4-2.3,17.1-3.8,25.4c-0.5,2.8-2.7,4.8-3.7,7.4c-1,2.5-1.6,5.2-2.4,7.8c-0.2,0.6-0.3,1.2-0.5,1.7c-5,8.8-9.9,17.5-16.3,25
	c-9.9,11.8-20,23.3-32.7,31.4c-4.6,2.9-10,4.6-15,6.8c-0.4,0.2-0.9-0.1-1.4-0.2C71.1,152.6,70.9,152.3,70.7,152z"/>
<path d="M72.9,157.6c3.1-1.6,6.1-3.2,9.3-4.7c19.8-9,34.1-25.7,47.6-43.4c1-1.3,2.1-2.5,2.9-4c4.7-8.7,10.5-16.8,13.1-27.1
	c2.4-9.6,5.3-19,5.5-29.8c0.1-4,0.8-7.8,1.6-11.6c0.4-1.9,1.3-3.5,2.1-5.6c1.9,2.2,2.3,3.8,2,6c-0.8,5.2-1.3,10.5-1.8,15.9
	c-0.9,11.3-4.2,21.1-8.4,30.4c-1.9,4.3-4.2,8.4-6.3,12.5c-2.6,5.2-4.9,10.8-8,15.6c-2.6,4.2-6,7.7-9.1,11.3
	c-8.3,9.5-17.1,18.4-27.4,25.1c-6.4,4.2-13.4,7.3-20.1,10.8c-0.6,0.3-1.6,0.1-2.4,0.1C73.3,158.8,73.1,158.2,72.9,157.6z"/>
<path d="M165.3,31.6c0.2,1.3,0.6,2.7,0.4,3.9c-1.5,11.8-3.1,23.6-4.6,35.5c-0.1,1,0,2.1-0.4,2.9c-3.7,8.9-6.9,18.2-11.4,26.4
	c-4.8,8.8-10.2,17.2-16.3,24.7c-6.7,8.4-13.9,16.5-21.9,23.2c-7.2,6-15.7,10.2-23.7,15c-3.1,1.8-6.4,3.2-9.7,4.7
	c-0.7,0.3-1.7-0.2-2.6-0.3c0.4-0.7,0.7-1.8,1.4-2c18.9-7.4,34.2-20.4,48.5-35c16.2-16.5,26.1-38.4,33.2-62.7
	c3.1-10.4,5.2-21.3,4.3-33.4c-0.1-1.2,0.8-2.2,1.3-3.3C164.4,31.3,164.9,31.4,165.3,31.6z"/>
<path d="M115.9,86.1c1.1-3.2,2-6.5,3.3-9.6c0.4-0.9,1.9-0.9,3.2-0.9C120.7,79.6,119.2,83.8,115.9,86.1z"/>
<path d="M115,75.3c-1.7,2.8-3.4,5.6-5.1,8.4c-0.4-0.3-0.8-0.7-1.3-1c1.3-2.9,2.5-5.9,3.9-8.6c0.2-0.3,1.3,0.2,2,0.3
	C114.7,74.6,114.8,74.9,115,75.3z"/>
<path d="M107.6,73.6c-1.1,2.1-2.2,4.2-3.5,6.2c-0.2,0.4-1.1,0.1-1.6,0.1c0-0.7,0-1.5,0.2-2.2c0.4-1.1,0.8-2.4,1.5-3.2
	c0.7-0.9,1.8-1.3,2.7-2C107.1,72.9,107.4,73.3,107.6,73.6z"/>
<path d="M77.8,99.4c2.6-1.7,3.7-5.1,7.6-4.6C83.8,98,79.9,100.6,77.8,99.4z"/>
<path d="M100.5,72.6c-0.3,1.4-0.3,2.9-0.9,4c-0.3,0.6-1.4,0.6-2.1,0.8c0.1-1.4-0.2-2.9,0.2-4c0.4-0.9,1.5-1.3,2.3-2
	C100.2,71.9,100.3,72.3,100.5,72.6z"/>
<path d="M89.5,117.6c1.8-2.3,3.1-5.3,6.1-5.4c0.3,0.5,0.5,0.9,0.8,1.4C94.1,114.9,91.8,116.3,89.5,117.6z"/>
<path d="M92.7,107.1c-1.5,1.4-3.1,2.7-4.6,4.1c-0.3-0.4-0.5-0.7-0.8-1.1c1.5-1.5,2.9-2.9,4.4-4.4C92,106.2,92.3,106.6,92.7,107.1z"
	/>
</svg>
