<?xml version="1.0" encoding="utf-8"?>
<!-- Generator: Adobe Illustrator 22.1.0, SVG Export Plug-In . SVG Version: 6.00 Build 0)  -->
<svg version="1.1" id="Layer_1" xmlns="http://www.w3.org/2000/svg" xmlns:xlink="http://www.w3.org/1999/xlink" x="0px" y="0px"
	 viewBox="0 0 600 450" style="enable-background:new 0 0 600 450;" xml:space="preserve">
<g id="mask">
	<path d="M168.4,132.3h-12.6V35.2h12.6v46.4L209,35.2h14.4l-39.9,45.6l46.1,51.6h-15.8l-45.3-50.8v50.7H168.4z"/>
	<path d="M240.8,132.3V35.2h54.9v10.7h-42.3v30.6h36.9v9.7h-36.9v35.4H299v10.7H240.8z"/>
	<path d="M314.6,132.3V35.2h54.9v10.7h-42.3v30.6h36.9v9.7h-36.9v35.4h45.6v10.7H314.6z"/>
	<path d="M401.1,132.3h-12.6V35.2h27c10.3,0,17.6,1.1,21.8,3.2c4.2,2.1,7.4,5.2,9.6,9.3c2.1,4.1,3.2,8.8,3.2,14.2
		c0,9.1-3.1,16.7-9.3,22.9c-6.2,6.2-15.4,9.3-27.7,9.3h-12V132.3z M401.1,84.2h8.5c11.2,0,18.6-2.2,22.1-6.5s5.3-9.5,5.3-15.5
		c0-5.2-1.4-9.4-4.3-12.6c-2.9-3.2-8.5-4.8-17-4.8H401v39.4H401.1z"/>
	<path d="M267.8,217.9c0-6.5,1.9-11.9,5.7-16.1c3.2-3.5,7.3-5.3,12.4-5.3c4,0,7.2,1.3,9.7,3.8s3.7,5.9,3.7,10.1
		c0,3.8-0.8,7.4-2.3,10.7s-3.7,5.8-6.6,7.6c-2.8,1.8-5.8,2.6-9,2.6c-2.6,0-4.9-0.6-7.1-1.7c-2.1-1.1-3.7-2.7-4.9-4.7
		C268.3,222.9,267.8,220.6,267.8,217.9z M273.4,217.4c0,3.1,0.8,5.5,2.3,7.1s3.4,2.4,5.7,2.4c1.2,0,2.4-0.2,3.6-0.7s2.3-1.2,3.3-2.2
		s1.9-2.1,2.6-3.4c0.7-1.3,1.3-2.7,1.7-4.1c0.6-2.1,1-4,1-5.9c0-3-0.8-5.3-2.3-7s-3.4-2.5-5.7-2.5c-1.8,0-3.4,0.4-4.9,1.3
		c-1.5,0.8-2.8,2.1-4,3.7s-2,3.5-2.6,5.7C273.7,213.7,273.4,215.7,273.4,217.4z"/>
	<path d="M302.4,230.5l6.9-33.2h5.1l-1.2,5.8c2.2-2.3,4.3-3.9,6.3-5c1.9-1,3.9-1.6,5.9-1.6c2.7,0,4.8,0.7,6.3,2.2s2.3,3.4,2.3,5.9
		c0,1.2-0.3,3.2-0.8,5.8l-4.2,20.1h-5.7l4.4-21.1c0.4-2,0.7-3.6,0.7-4.5c0-1.1-0.4-2-1.1-2.7c-0.8-0.7-1.9-1-3.3-1
		c-2.9,0-5.5,1-7.7,3.1c-2.3,2.1-3.9,5.7-5,10.7l-3.2,15.5H302.4z"/>
	<path d="M57.6,338.2H70v-38.9c0-1-0.1-1.8-0.3-2.4c-0.2-0.6-0.5-1.1-1-1.4s-0.9-0.6-1.5-0.7s-1.2-0.2-1.9-0.2c-1,0-2.2,0.2-3.7,0.5
		s-3,0.8-4.7,1.4c-1.6,0.6-3.3,1.4-5,2.4c-1.7,0.9-3.1,2-4.4,3.2c-1.3,1.2-2.4,2.5-3.2,4s-1.2,3-1.2,4.7c0,1.5,0.2,2.6,0.6,3.5
		c0.4,0.9,0.8,1.5,1.3,1.9s1,0.7,1.5,0.8c0.5,0.1,0.9,0.2,1.1,0.2c1.1,0,2.1-0.2,2.8-0.6s1.4-0.8,2-1.2c0.6-0.4,1.2-0.8,1.7-1.2
		c0.5-0.4,1.1-0.6,1.8-0.6c0.5,0,1.1,0.1,1.7,0.4c0.6,0.3,1.2,0.6,1.7,1.2c0.5,0.5,1,1.3,1.3,2.2c0.4,0.9,0.5,2,0.5,3.2
		c0,1.8-0.4,3.4-1.1,4.7c-0.7,1.3-1.6,2.4-2.7,3.3c-1.1,0.9-2.4,1.5-3.8,2c-1.4,0.4-2.9,0.6-4.3,0.6c-2.2,0-4.2-0.4-5.9-1.1
		c-1.8-0.8-3.2-1.8-4.5-3.1c-1.2-1.3-2.2-2.9-2.8-4.6c-0.6-1.8-1-3.7-1-5.7c0-3.1,0.6-6,1.7-8.6c1.1-2.6,2.7-5,4.7-7.1
		s4.3-3.9,7-5.5s5.5-2.9,8.6-3.9c3.1-1,6.3-1.8,9.7-2.4c3.4-0.5,6.7-0.8,10.1-0.8c3.7,0,6.6,0.4,8.7,1.1s3.6,1.6,4.6,2.6
		s1.6,2.1,1.7,3.1c0.2,1.1,0.3,2,0.3,2.7v40.3h25.2v-32.9c0-7.5,1-13.9,2.9-19.2c2-5.3,4.5-9.6,7.6-13c3.1-3.3,6.6-5.8,10.4-7.3
		c3.8-1.5,7.6-2.3,11.4-2.3c2.6,0,5.1,0.2,7.4,0.6c2.3,0.4,4.4,1,6.2,1.7c1.8,0.8,3.2,1.7,4.2,2.9c1,1.2,1.6,2.5,1.6,4.1
		c0,0.7-0.1,1.3-0.3,1.9s-0.5,1.2-0.9,1.7s-0.8,0.9-1.3,1.2c-0.5,0.3-1,0.4-1.5,0.4c-0.8,0-1.5-0.2-2.2-0.8
		c-0.6-0.5-1.2-1.1-1.8-1.9s-1.1-1.6-1.7-2.5s-1.2-1.7-1.8-2.5s-1.5-1.4-2.3-1.9c-0.9-0.5-1.9-0.8-3.1-0.8c-2.8,0-5,0.8-6.6,2.3
		s-2.9,3.8-3.8,6.7c-0.9,2.9-1.4,6.6-1.7,11s-0.4,9.4-0.4,15v35.3h13.7v6H140v41.6c0,1.3,0.3,2.4,0.9,3.2c0.6,0.8,1.4,1.2,2.6,1.2
		c1.3,0,2.5-0.2,3.6-0.7s2.1-0.9,2.9-1.3l1.2,2.5c-1,0.7-2.2,1.4-3.5,2.2c-1.3,0.8-2.8,1.5-4.4,2.1c-1.6,0.7-3.3,1.2-5.2,1.6
		c-1.8,0.4-3.8,0.6-5.8,0.6c-3.1,0-5.6-0.4-7.5-1.2s-3.4-1.9-4.4-3.2c-1-1.3-1.7-2.9-2.1-4.5c-0.3-1.7-0.5-3.4-0.5-5.1V344H92.4v34
		c0,6.2-1.1,11.6-3.4,16.2s-5.3,8.4-9.3,11.5c-3.9,3.1-8.5,5.4-13.8,6.9s-11,2.3-17.1,2.3c-2.3,0-4.6-0.2-6.7-0.6
		c-2.1-0.4-4-0.9-5.7-1.6s-3-1.5-3.9-2.4c-1-0.9-1.5-1.9-1.5-3c0-0.8,0.1-1.7,0.3-2.5c0.2-0.8,0.6-1.6,1-2.3c0.5-0.7,1-1.3,1.7-1.7
		c0.7-0.5,1.4-0.7,2.2-0.7c0.5,0,0.9,0.2,1.3,0.8c0.4,0.5,0.8,1.1,1.2,1.9s0.9,1.6,1.4,2.4c0.5,0.9,1.2,1.7,2.1,2.4
		c0.8,0.8,1.9,1.4,3,1.9c1.2,0.5,2.7,0.8,4.4,0.8c3.5,0,6.5-0.6,9.1-1.9c2.5-1.3,4.6-3.1,6.3-5.4s2.9-5.1,3.7-8.3
		c0.8-3.2,1.2-6.7,1.2-10.6V344H57.6V338.2z"/>
	<path d="M226.4,378.6c0,0.4,0,0.9,0.1,1.3c0,0.5,0.2,0.9,0.3,1.4c0.2,0.4,0.5,0.8,0.8,1.1c0.4,0.3,0.9,0.4,1.6,0.4
		c0.9,0,1.6-0.3,2.3-0.9s1.3-1.2,1.9-1.9l1.6,1.4c-0.7,1-1.5,2-2.6,3.2s-2.3,2.3-3.7,3.3c-1.5,1-3.1,1.9-5,2.6s-4,1.1-6.4,1.1
		c-2,0-3.7-0.3-5.2-0.8s-2.7-1.2-3.8-2.1s-1.8-1.9-2.3-3.1s-0.8-2.5-0.8-3.9v-3.1c-2.3,2.5-4.7,4.6-7.2,6.5
		c-1.1,0.8-2.3,1.6-3.5,2.4s-2.5,1.5-3.8,2.1s-2.7,1.1-4.1,1.5c-1.4,0.4-2.8,0.5-4.2,0.5c-2.7,0-5.1-0.5-7-1.5s-3.5-2.3-4.7-3.9
		s-2.1-3.4-2.6-5.4s-0.8-4-0.8-6v-42.3c0-0.4,0-0.9-0.1-1.3c0-0.5-0.2-0.9-0.3-1.4c-0.2-0.4-0.5-0.8-0.8-1.1
		c-0.4-0.3-0.9-0.4-1.6-0.4c-0.8,0-1.6,0.3-2.3,0.9s-1.3,1.2-1.9,1.9l-1.7-1.4c0.7-1,1.5-2,2.6-3.2s2.3-2.3,3.7-3.3
		c1.5-1,3.1-1.9,5-2.6s4-1.1,6.3-1.1c2,0,3.8,0.3,5.3,0.8s2.8,1.2,3.8,2.1s1.8,1.9,2.3,3.1s0.8,2.5,0.8,3.9v45.7
		c0,0.6,0.1,1.3,0.3,1.9c0.2,0.7,0.5,1.3,0.9,1.8s0.9,1,1.5,1.3s1.3,0.5,2.1,0.5c1.3,0,2.6-0.3,4-1c1.3-0.7,2.5-1.5,3.6-2.4
		s2-1.9,2.8-2.8s1.4-1.6,1.7-2.1v-39.9c0-0.4,0-0.9-0.1-1.3c0-0.5-0.2-0.9-0.3-1.4c-0.2-0.4-0.5-0.8-0.8-1.1
		c-0.4-0.3-0.9-0.4-1.6-0.4c-0.8,0-1.6,0.3-2.3,0.9s-1.3,1.2-1.9,1.9l-1.7-1.4c0.7-1,1.5-2,2.6-3.2s2.3-2.3,3.7-3.3
		c1.5-1,3.1-1.9,5-2.6s4-1.1,6.3-1.1c2,0,3.8,0.3,5.3,0.8s2.8,1.2,3.8,2.1s1.8,1.9,2.3,3.1s0.8,2.5,0.8,3.9L226.4,378.6L226.4,378.6
		z"/>
	<path d="M267.7,325c-1,0-2,0.1-3,0.4c-0.9,0.3-1.8,0.7-2.5,1.3c-0.7,0.6-1.3,1.4-1.7,2.3c-0.4,0.9-0.6,2-0.6,3.3
		c0,1.8,0.6,3.5,1.9,5.3s2.9,3.6,4.9,5.5c1.9,1.9,4,3.9,6.3,5.9s4.4,4.2,6.3,6.4c1.9,2.3,3.6,4.7,4.9,7.2c1.3,2.6,1.9,5.3,1.9,8.2
		c0,3.3-0.6,6.2-1.7,8.8c-1.1,2.6-2.7,4.7-4.8,6.5c-2.1,1.8-4.6,3.1-7.5,4.1s-6.2,1.4-9.8,1.4c-3.1,0-6-0.4-8.5-1.3
		c-2.6-0.9-4.8-2-6.8-3.3s-3.7-2.7-5.1-4.1c-1.4-1.5-2.5-2.8-3.3-4l2.4-1.7c0.6,0.7,1.3,1.4,2.3,2.2c0.9,0.8,1.9,1.5,3,2.2
		s2.3,1.2,3.6,1.7c1.3,0.4,2.6,0.6,3.9,0.6c3.3,0,6-0.8,8.1-2.4s3.1-3.9,3.1-7c0-1.7-0.6-3.5-1.7-5.4c-1.1-1.8-2.6-3.7-4.3-5.7
		c-1.7-2-3.6-4-5.6-6.1s-3.9-4.3-5.6-6.5c-1.7-2.2-3.2-4.5-4.3-6.9s-1.7-4.8-1.7-7.4c0-2.9,0.6-5.4,1.7-7.5c1.2-2.1,2.7-3.9,4.6-5.3
		c1.9-1.4,4.1-2.5,6.6-3.2c2.5-0.7,5-1.1,7.7-1.1c3.1,0,5.8,0.3,8.3,0.8s4.7,1.4,6.5,2.5s3.2,2.5,4.2,4.2s1.5,3.6,1.5,5.9
		c0,1.7-0.6,3.2-1.7,4.5s-2.7,1.9-4.8,1.9c-2,0-3.5-0.4-4.5-1.3c-1-0.8-1.5-2-1.5-3.5c0-1,0.2-1.7,0.7-2.3s1-1,1.6-1.3
		s1.1-0.6,1.6-0.9c0.5-0.2,0.7-0.6,0.7-1c0-1.3-0.7-2.3-2.1-3S269.8,325,267.7,325z"/>
	<path d="M321,325.5V376c0,2.4,0.5,4.1,1.4,5s2.2,1.4,3.8,1.4c1.2,0,2.3-0.3,3.3-1s1.8-1.5,2.5-2.3c0.8-1,1.5-2.1,2.1-3.3l2.1,1
		c-0.7,1.5-1.5,3.1-2.4,4.8c-0.9,1.7-2.2,3.3-3.7,4.8s-3.5,2.7-5.8,3.7s-5.3,1.5-8.9,1.5c-2,0-3.9-0.3-5.8-0.9s-3.5-1.5-4.9-2.8
		s-2.6-2.9-3.5-4.8s-1.3-4.2-1.3-6.9v-50.7h-7.7v-4.9c1.3,0,3.1-0.3,5.3-1c2.3-0.7,4.6-1.8,7-3.3s4.6-3.6,6.7-6.2s3.5-5.8,4.4-9.6
		h5.5v20.2h11.1c3.6,0,5.5-0.6,5.5-1.8c0-0.5-0.2-0.8-0.7-0.9c-0.5-0.2-1-0.4-1.5-0.6c-0.6-0.2-1.1-0.6-1.5-1.1
		c-0.5-0.5-0.7-1.2-0.7-2.3c0-1.3,0.4-2.3,1.2-3c0.8-0.7,1.8-1.1,3.1-1.1c0.8,0,1.5,0.2,2.2,0.5s1.1,0.8,1.5,1.4s0.7,1.2,0.9,1.9
		c0.2,0.7,0.3,1.5,0.3,2.2c0,3-0.9,5.3-2.6,7.1c-1.7,1.8-4.5,2.6-8.2,2.6H321V325.5z"/>
	<path d="M368.5,384.5c0,0.6-0.1,1.3-0.3,2.1s-0.7,1.6-1.4,2.3c-0.8,0.7-1.8,1.4-3.3,1.9s-3.4,0.8-5.8,0.8s-4.3-0.3-5.7-0.9
		s-2.4-1.2-3-2c-0.7-0.8-1.1-1.6-1.2-2.4c-0.2-0.8-0.2-1.5-0.2-2v-88.2c0-1.3-0.3-2.5-0.9-3.5s-1.7-1.5-3.1-1.5
		c-0.8,0-1.4,0.1-2,0.4s-1.2,0.6-1.8,1.1l-1.4-1.6c1-0.9,2.2-1.7,3.5-2.6c1.3-0.8,2.7-1.6,4.2-2.2s3.2-1.2,4.9-1.6
		c1.7-0.4,3.6-0.6,5.5-0.6c3,0,5.3,0.4,6.9,1.2c1.6,0.8,2.8,1.8,3.6,2.9c0.8,1.2,1.2,2.4,1.4,3.7c0.2,1.3,0.2,2.5,0.2,3.5v89.2
		H368.5z"/>
	<path d="M409,384.4c0,0.6-0.1,1.3-0.3,2.2c-0.2,0.8-0.7,1.6-1.4,2.4s-1.8,1.4-3.2,1.9c-1.4,0.5-3.3,0.8-5.7,0.8
		c-2.4,0-4.3-0.3-5.7-0.9s-2.4-1.2-3.1-2s-1.1-1.6-1.3-2.4c-0.2-0.8-0.2-1.5-0.2-2v-52.8c0-1.3-0.3-2.5-0.9-3.5s-1.7-1.5-3.1-1.5
		c-0.8,0-1.4,0.1-2,0.4s-1.1,0.7-1.8,1.2l-1.4-1.7c1-0.9,2.2-1.7,3.5-2.6c1.3-0.8,2.7-1.6,4.2-2.2s3.1-1.2,4.9-1.6
		c1.7-0.4,3.6-0.6,5.5-0.6c3,0,5.3,0.4,6.9,1.2c1.6,0.8,2.8,1.8,3.6,2.9c0.8,1.2,1.2,2.4,1.4,3.7c0.2,1.3,0.2,2.5,0.2,3.5v53.6H409z
		 M385.9,304c0-1.3,0.3-2.5,0.9-3.7s1.4-2.2,2.4-3c1-0.9,2.2-1.5,3.6-2.1c1.3-0.5,2.8-0.8,4.4-0.8c1.5,0,3,0.3,4.3,0.8
		s2.5,1.2,3.5,2.1s1.8,1.9,2.4,3c0.6,1.2,0.9,2.4,0.9,3.7c0,1.3-0.3,2.6-0.9,3.7s-1.4,2.1-2.4,3c-1,0.8-2.2,1.5-3.5,2
		s-2.8,0.8-4.3,0.8c-1.6,0-3.1-0.2-4.4-0.8c-1.3-0.5-2.5-1.2-3.6-2c-1-0.8-1.8-1.8-2.4-3C386.1,306.5,385.9,305.3,385.9,304z"/>
	<path d="M453,324.8c0-4.1,0-8-0.1-11.4c-0.1-3.5-0.1-6.5-0.2-9.1s-0.1-4.6-0.2-6.1s-0.1-2.4-0.1-2.7c-0.9-0.6-1.9-1-3.1-1
		s-2.3-0.1-3.5-0.1c-1.6,0-3.5,0.4-5.7,1.1c-2.2,0.8-4.4,1.8-6.5,3.2c-2.1,1.4-3.9,3.1-5.3,5.1c-1.5,2-2.2,4.3-2.2,6.8
		c0,1.5,0.2,2.6,0.6,3.5s0.8,1.5,1.4,1.9c0.5,0.4,1,0.7,1.6,0.8c0.5,0.1,0.9,0.2,1.1,0.2c1.1,0,2.1-0.2,2.8-0.6
		c0.7-0.4,1.4-0.8,2-1.2c0.6-0.4,1.2-0.8,1.7-1.2c0.5-0.4,1.1-0.6,1.8-0.6c0.5,0,1.1,0.1,1.7,0.4s1.2,0.6,1.7,1.2
		c0.5,0.5,1,1.3,1.3,2.2c0.4,0.9,0.5,2,0.5,3.2c0,1.8-0.4,3.4-1.1,4.7c-0.7,1.3-1.6,2.4-2.7,3.3s-2.4,1.5-3.8,2
		c-1.4,0.4-2.9,0.6-4.3,0.6c-2.2,0-4.2-0.4-5.9-1.1c-1.8-0.8-3.2-1.8-4.5-3.1c-1.2-1.3-2.2-2.9-2.8-4.6s-1-3.7-1-5.7
		c0-4.7,1-8.9,3-12.4s4.6-6.5,7.9-8.9s7.1-4.1,11.4-5.3s8.8-1.7,13.4-1.7c4.1,0,7.6,0.3,10.3,0.8c2.7,0.5,4.9,1.3,6.6,2.2
		c1.7,0.9,3,2,4,3.2c1,1.3,1.8,2.6,2.5,3.9c2.8,5.7,5.5,11.2,8.1,16.7s5.1,10.8,7.6,16c2.4,5.2,4.8,10.2,7.1,15
		c2.3,4.8,4.5,9.4,6.7,13.6v-9.8v-21.1c0-3.8,0.1-7.5,0.3-11.1s0.6-7,1.3-10.3c0.7-3.2,1.7-6.2,3-8.9c1.3-2.7,3.1-5,5.3-7
		s5-3.5,8.2-4.6s7.2-1.6,11.8-1.6c2.3,0,4.5,0.2,6.4,0.5c2,0.3,3.7,0.8,5.1,1.5c1.4,0.6,2.6,1.4,3.4,2.4c0.8,0.9,1.2,2,1.2,3.1
		c0,0.7-0.1,1.5-0.3,2.3s-0.5,1.5-0.9,2.2c-0.4,0.6-0.9,1.2-1.5,1.6s-1.3,0.6-2.2,0.6c-0.7,0-1.3-0.5-1.9-1.4c-0.6-1-1.3-2-2.1-3.2
		s-2-2.2-3.3-3.2c-1.4-1-3.3-1.4-5.6-1.4c-3.7,0-6.8,0.6-9.2,1.9s-4.4,3.1-5.9,5.5s-2.6,5.3-3.3,8.6c-0.7,3.4-1.2,7.2-1.3,11.3
		c-0.1,2.9-0.2,5.7-0.2,8.4c-0.1,2.7-0.1,5.5-0.1,8.2c0,2.8,0,5.7,0,8.6c0,3,0,6.2,0,9.6c0,4.8,0,9.2,0.1,13c0,3.8,0.1,7,0.2,9.4
		c2.1,3.5,4.1,6.7,6.1,9.5s4,5.2,5.9,7.1s3.9,3.4,5.8,4.5c2,1,3.9,1.6,5.9,1.6c0.6,0,1.3-0.1,1.8-0.3c0.6-0.2,1.1-0.4,1.6-0.6
		s1-0.5,1.5-0.9l2.2,2.7c-0.6,0.5-1.5,1-2.7,1.6s-2.6,1.3-4.2,1.8c-1.7,0.6-3.6,1.1-5.7,1.5c-2.1,0.4-4.5,0.6-7,0.6
		c-3.7,0-7.2-0.9-10.6-2.7c-3.4-1.8-6.7-4.3-9.8-7.4s-6.2-6.8-9-11c-2.9-4.2-5.6-8.7-8.3-13.6c-2.7-4.8-5.2-9.9-7.7-15.1
		s-4.8-10.4-7.1-15.6c-2.3-5.1-4.5-10.1-6.6-14.9s-4.2-9.2-6.2-13.2c0,2.6,0,5.4,0.1,8.2c0,2.8,0.1,5.7,0.1,8.5v21.2
		c0,3.8-0.1,7.5-0.3,11.1c-0.2,3.6-0.6,7-1.3,10.2s-1.7,6.2-3,8.9c-1.3,2.7-3.1,5-5.3,7c-2.2,2-5,3.5-8.3,4.6s-7.2,1.6-11.8,1.6
		c-2.3,0-4.5-0.2-6.4-0.5c-2-0.3-3.7-0.8-5.1-1.5s-2.6-1.4-3.3-2.3c-0.8-0.9-1.2-2-1.2-3.1c0-0.7,0.1-1.5,0.3-2.3
		c0.2-0.8,0.5-1.5,0.9-2.2c0.4-0.6,0.9-1.2,1.5-1.6s1.3-0.6,2.1-0.6c0.5,0,0.9,0.2,1.3,0.7s0.8,1,1.2,1.7c0.4,0.7,0.9,1.4,1.5,2.2
		c0.6,0.8,1.3,1.5,2.1,2.2c0.8,0.7,1.8,1.3,2.9,1.7c1.1,0.5,2.5,0.7,4.1,0.7c3.7,0,6.8-0.6,9.2-1.9c2.4-1.3,4.4-3.1,5.9-5.5
		s2.6-5.3,3.3-8.6c0.7-3.4,1.1-7.2,1.3-11.3c0.1-2.9,0.2-5.7,0.3-8.3c0-2.7,0.1-5.4,0.1-8.2c0-2.8,0.1-5.7,0.1-8.7
		S453,328.3,453,324.8z"/>
	<path d="M561.1,321.4c2.8-1.9,4.8-4,5.8-6.1c1.1-2.2,1.6-4.2,1.6-6.2c0-2.1-0.6-4-1.7-5.6c-1.2-1.6-2.5-3-3.9-4.2
		c-0.7-0.7-1-1.4-1-2.3c0-1,0.3-1.9,1-2.9c0.6-1,1.5-1.9,2.5-2.8s2.3-1.6,3.7-2.1s2.8-0.8,4.3-0.8c1.4,0,2.6,0.4,3.6,1.1
		s1.8,1.6,2.4,2.7c0.6,1,1,2.2,1.3,3.3s0.4,2.2,0.4,3.1c0,2.7-0.5,5.2-1.4,7.7c-1,2.4-2.3,4.7-3.9,6.8c-1.6,2.1-3.5,4.1-5.7,5.9
		s-4.5,3.4-6.9,4.8L561.1,321.4z"/>
</g>
</svg>
